<svg id="devx-final_svg__Layer_1" xmlns="http://www.w3.org/2000/svg" x="0" y="0" viewBox="0 0 700 114" style="enable-background:new 0 0 700 114" xml:space="preserve" width="260" role="img" alt="DevX Digital"><style>.devx-final_svg__st2{fill-rule:evenodd;clip-rule:evenodd}.devx-final_svg__st2,.devx-final_svg__st3{fill:#0d0d0d}</style><path d="M108 1.7C106.9.6 105.4 0 103.6 0c-1.7 0-3.2.6-4.4 1.8-1.1 1.1-1.7 2.6-1.7 4.4v27.4c-1-1.1-2-2.1-3.2-3-2.2-1.8-4.8-3.2-7.8-4.4-2.9-1.1-6.1-1.7-9.4-1.7-5.4 0-10.3 1.5-14.8 4.4-4.4 2.8-7.8 6.7-10.4 11.8-2.6 4.9-3.9 10.6-3.9 17.1S49.3 70 51.9 75c2.6 4.9 6.1 8.8 10.5 11.8 4.4 2.8 9.5 4.2 15 4.2 3.2 0 6.1-.5 8.8-1.6 2.7-1.1 5.1-2.5 7.1-4.2 1.6-1.4 3-2.7 4-4.2v2.6c0 1.8.6 3.3 1.7 4.5 1.2 1.1 2.7 1.7 4.4 1.7 1.8 0 3.2-.6 4.4-1.7 1.1-1.2 1.7-2.7 1.7-4.5V6.2c.2-1.9-.3-3.4-1.5-4.5zM89 76.8c-2.8 1.9-6.2 2.9-10.1 2.9-3.7 0-7-1-9.9-2.9-2.8-1.9-5.1-4.6-6.8-7.9-1.6-3.3-2.4-7.1-2.4-11.3 0-4.2.8-8 2.4-11.3 1.7-3.3 4-5.9 6.8-7.9 2.9-1.9 6.2-2.9 9.9-2.9 3.8 0 7.1 1 10.1 2.9s5.2 4.6 6.8 7.9c1.6 3.3 2.4 7.1 2.4 11.3s-.8 8-2.4 11.3c-1.6 3.4-3.9 6-6.8 7.9zm49.9 10c4.9 2.7 10.7 4.1 17.4 4.1 4.2 0 8.2-.8 12-2.4 3.9-1.6 6.9-3.5 9.1-5.6 1.8-1.5 2.7-3.1 2.7-4.8 0-1.4-.5-2.5-1.5-3.5-1-1.1-2.2-1.6-3.6-1.6-1.2 0-2.4.4-3.6 1.1-1.1.9-2.2 1.7-3.4 2.5-1.3.9-2.9 1.7-4.8 2.3-1.9.6-4.4.8-7.4.8-3.8 0-7.3-.9-10.4-2.7-3.1-1.9-5.7-4.4-7.5-7.8-1.4-2.4-2.2-5.2-2.6-8.2h42.1c1.6 0 3-.5 4.2-1.6 1.2-1 1.9-2.4 1.9-4-.1-4.4-.9-8.5-2.5-12.2-1.6-3.8-3.8-7.1-6.7-9.8-2.7-2.8-5.9-5-9.5-6.5-3.6-1.6-7.3-2.4-11.3-2.4-5.2 0-10.1 1.4-14.7 4.1-4.6 2.7-8.4 6.5-11.3 11.6-2.8 5-4.2 11.1-4.2 18.2 0 6.3 1.3 11.9 4 16.8 2.9 4.9 6.7 8.7 11.6 11.6zm-3.3-36c.2-1.2.5-2.4.9-3.4 1.1-2.8 2.4-5.1 4.1-6.8 1.8-1.7 3.8-2.9 5.9-3.6 2.3-.8 4.6-1.2 7-1.2 2.7 0 5.4.6 7.9 1.8 2.5 1.1 4.6 2.8 6.3 5 1.7 2.1 2.6 4.6 2.8 7.4v.8h-34.9z" style="fill-rule:evenodd;clip-rule:evenodd;fill:#b91c1c"></path><path d="M198.1 25.3c1.2 0 2.3.3 3.4 1 1.1.6 1.9 1.6 2.4 2.9L222 71.1l17.9-41.7c1.1-2.7 2.9-4 5.5-3.9 1.6 0 2.9.5 4 1.6 1.1 1 1.7 2.3 1.7 3.9 0 .5-.1 1-.2 1.6l-.6 1.5-23 51.9c-1.1 2.4-2.8 3.7-5.2 3.9-1.2.2-2.4-.1-3.6-.7-1.1-.7-2-1.8-2.7-3.2l-22.9-51.9c-.2-.4-.4-.8-.5-1.2-.2-.6-.2-1.2-.2-1.9 0-1.2.5-2.4 1.6-3.6.9-1.5 2.4-2.1 4.3-2.1zm70.5 2.8c-1.3-1.7-2.9-2.5-5-2.5-1.6 0-3.1.6-4.4 1.8-1.2 1.1-1.8 2.5-1.8 4.2 0 1.3.5 2.6 1.3 3.6l18.4 23.2-17.9 22.2c-1 1.1-1.5 2.4-1.5 3.8 0 1.5.6 2.8 1.9 3.9 1.3 1.1 2.6 1.6 4 1.6 1.9 0 3.6-.8 4.8-2.5l15.6-20 15.9 20c1.4 1.7 3 2.5 5 2.5 1.5 0 2.9-.6 4.2-1.8 1.3-1.2 1.9-2.6 1.9-4.2 0-1.3-.5-2.6-1.3-3.6l-18.3-23.1L309.1 35c.6-.6.9-1.2 1.1-1.8.2-.7.4-1.4.4-2.1 0-1.5-.6-2.7-1.7-3.8-1-1.1-2.4-1.7-4.1-1.7-1.9 0-3.5.9-4.8 2.8l-15.2 20.3c0-.1-16.2-20.6-16.2-20.6z" style="fill:#b91c1c"></path><path class="devx-final_svg__st2" d="M374.1 0c1 0 1.9.4 2.5 1.1.7.6 1.1 1.5 1.1 2.5V86c0 1-.4 1.8-1.1 2.5s-1.6 1.1-2.5 1.1c-1.1 0-1.9-.4-2.7-1.1-.6-.7-1-1.6-1-2.5v-8.5c-1.2 2.2-2.9 4.4-5 6.3-2.2 2.1-4.8 3.8-7.8 5.1-2.9 1.3-6.1 1.9-9.5 1.9-5.4 0-10.3-1.4-14.7-4.2-4.3-2.8-7.7-6.7-10.2-11.5-2.5-4.8-3.8-10.4-3.8-16.6 0-6.1 1.3-11.6 3.8-16.5s5.9-8.8 10.2-11.5c4.3-2.8 9.1-4.2 14.5-4.2 3.3 0 6.5.6 9.5 1.8 3 1.2 5.6 2.9 7.9 5 2.1 1.8 3.7 4 5 6.3V3.6c0-1 .3-1.8 1-2.5.9-.7 1.8-1.1 2.8-1.1zm-25.2 84.1c4.4 0 8.2-1.1 11.4-3.3 3.3-2.3 5.9-5.3 7.8-9.1 1.9-3.9 2.9-8.3 2.9-13.2 0-4.8-1-9.2-2.9-13-1.9-3.9-4.4-6.9-7.8-9.1-3.3-2.3-7.1-3.4-11.4-3.4-4.2 0-8 1.1-11.4 3.4-3.3 2.2-5.9 5.2-7.9 9.1-1.9 3.8-2.8 8.1-2.8 13 0 4.8.9 9.2 2.8 13.1 1.9 3.9 4.6 6.9 7.9 9.2 3.4 2.2 7.2 3.3 11.4 3.3z"></path><path class="devx-final_svg__st3" d="M402.8 88.6c.7-.7 1.1-1.6 1.1-2.5V30.3c0-1-.4-1.8-1.1-2.5-.6-.7-1.5-1.1-2.5-1.1s-1.9.4-2.7 1.1c-.6.7-1 1.6-1 2.5V86c0 1 .3 1.8 1 2.5s1.6 1.1 2.7 1.1c.9.1 1.8-.3 2.5-1zm-6.4-71.2c.9.7 2.2 1.1 3.9 1.1 1.6 0 2.8-.4 3.6-1.1.9-.8 1.3-1.9 1.3-3.4v-1.2c0-1.5-.4-2.5-1.3-3.3-.8-.8-2-1.2-3.5-1.2-1.6 0-2.9.4-3.9 1.2-.9.7-1.3 1.8-1.3 3.3V14c0 1.5.4 2.6 1.2 3.4z"></path><path class="devx-final_svg__st2" d="M448.6 26.3c3.6 0 7 .6 10.1 1.9 3.1 1.2 5.7 2.8 8 4.8 2.3 1.9 4 3.9 5.3 6.1v-7.7c0-1 .3-1.9 1-2.7.7-.7 1.6-1.1 2.7-1.1s2 .4 2.7 1.1 1 1.6 1 2.7V84c0 6.5-1.3 11.9-4 16.4-2.7 4.4-6.3 7.8-10.9 10.1-4.5 2.3-9.7 3.5-15.5 3.5-2.8 0-5.8-.4-9-1.1-3.1-.7-5.7-1.7-8-2.8-2.2-1.1-3.4-2.3-3.6-3.5-.6-.7-1-1.5-1-2.2.1-.6.4-1.2 1.1-1.7.8-.6 1.7-.6 2.5-.2.9.5 2.2 1.1 4 1.8.8.2 1.9.6 3.3 1.1 1.4.5 3 .9 4.8 1.2 1.9.4 4 .6 6.1.6 7.3 0 12.9-2.1 16.8-6.3 4-4.1 6.1-9.6 6.1-16.4V77c-.6 1.4-1.4 2.6-2.3 3.8-1.6 2.2-3.6 4.1-5.8 5.6-2.3 1.5-4.8 2.6-7.4 3.3-2.6.8-5.2 1.2-7.8 1.2-5.6 0-10.6-1.4-15-4.2-4.4-2.8-8-6.7-10.7-11.5-2.6-4.8-3.9-10.4-3.9-16.6 0-6.1 1.3-11.6 3.9-16.5 2.7-4.9 6.2-8.8 10.5-11.5 4.4-2.9 9.4-4.3 15-4.3zm.8 6.8c-4.4 0-8.4 1.1-12 3.4-3.5 2.2-6.2 5.2-8.2 9.1-1.9 3.8-2.9 8.1-2.9 13 0 4.8 1 9.2 2.9 13.1 2 3.9 4.8 6.9 8.2 9.2 3.6 2.2 7.6 3.3 12 3.3s8.4-1.1 11.9-3.3c3.5-2.2 6.2-5.2 8.2-9 2-3.9 3-8.3 3-13.3s-1-9.4-3-13.2c-2-3.9-4.8-6.9-8.2-9-3.5-2.2-7.4-3.3-11.9-3.3z"></path><path class="devx-final_svg__st3" d="M504.3 88.6c.7-.7 1.1-1.6 1.1-2.5V30.3c0-1-.4-1.8-1.1-2.5-.6-.7-1.5-1.1-2.5-1.1-1.1 0-1.9.4-2.7 1.1-.6.7-1 1.6-1 2.5V86c0 1 .3 1.8 1 2.5s1.6 1.1 2.7 1.1c.9.1 1.8-.3 2.5-1zm-6.4-71.2c.9.7 2.2 1.1 3.9 1.1 1.6 0 2.8-.4 3.6-1.1.9-.8 1.3-1.9 1.3-3.4v-1.2c0-1.5-.4-2.5-1.3-3.3-.8-.8-2-1.2-3.5-1.2-1.6 0-2.9.4-3.9 1.2-.9.7-1.3 1.8-1.3 3.3V14c0 1.5.4 2.6 1.2 3.4zM520.3 28h8.8V14.5c0-1 .3-1.8 1-2.5s1.6-1.1 2.7-1.1 1.9.4 2.5 1.1c.7.7 1.1 1.6 1.1 2.5V28h12.1c1 0 1.8.4 2.4 1.1.6.6 1 1.5 1 2.4 0 .9-.3 1.7-1 2.3-.6.6-1.5 1-2.4 1h-12.1v40.6c0 2.3.3 4 .8 5.1.6 1.1 1.5 1.9 2.4 2.3 1 .3 1.9.5 2.9.5.6 0 1.2-.1 1.7-.2.6-.2 1.2-.4 1.8-.4.7 0 1.3.3 1.8.8.6.6.8 1.3.8 2.2 0 1.1-.6 2.1-1.9 2.9-1.3.7-2.8 1.1-4.6 1.1-.7 0-1.8 0-3.3-.1-1.5-.2-2.9-.6-4.5-1.3-1.5-.8-2.8-2.2-3.9-4.1-1-1.9-1.5-4.7-1.5-8.4v-41h-8.8c-.9 0-1.8-.3-2.5-1-.6-.7-1-1.5-1-2.4 0-1 .3-1.8 1-2.4.8-.7 1.7-1 2.7-1z"></path><path class="devx-final_svg__st2" d="M618.7 28.8c-.6-.7-1.5-1.1-2.5-1.1s-1.9.4-2.7 1.1c-.6.7-1 1.6-1 2.7v7.6c-1.2-2.2-2.7-4.2-4.6-6-2.3-2.1-4.9-3.8-8-5-3-1.2-6.2-1.8-9.7-1.8-5.4 0-10.3 1.4-14.5 4.1-4.3 2.7-7.7 6.5-10.2 11.4-2.5 4.8-3.8 10.3-3.8 16.6 0 6.1 1.2 11.7 3.6 16.6 2.5 4.9 5.9 8.8 10.2 11.6 4.4 2.8 9.3 4.2 14.8 4.2 3.4 0 6.5-.6 9.5-1.8 3-1.3 5.6-2.9 7.8-5 2.1-2 3.8-4.1 5-6.3V86c0 1 .3 1.8 1 2.5s1.6 1.1 2.7 1.1c1 0 1.8-.4 2.5-1.1s1.1-1.6 1.1-2.5V31.5c-.2-1-.5-1.9-1.2-2.7zm-16.4 52c-3.3 2.2-7.1 3.3-11.4 3.3s-8.1-1.1-11.4-3.3c-3.3-2.3-5.9-5.3-7.9-9.2-1.9-4-2.8-8.4-2.8-13.2 0-4.9.9-9.3 2.8-13.1 1.9-3.8 4.6-6.8 7.9-9 3.4-2.2 7.2-3.3 11.4-3.3 4.3 0 8.1 1.1 11.4 3.4 3.3 2.3 5.9 5.3 7.8 9.1 1.9 3.8 2.9 8.1 2.9 12.8 0 4.8-1 9.2-2.9 13.2s-4.5 7.1-7.8 9.3z"></path><path class="devx-final_svg__st3" d="M646.8 86c0 1-.4 1.8-1.1 2.5-.7.7-1.6 1.1-2.5 1.1-1 0-1.9-.4-2.7-1.1-.6-.7-1-1.6-1-2.5V3.6c0-1 .4-1.8 1.1-2.5s1.6-1.1 2.5-1.1c1 0 1.9.4 2.5 1.1.7.7 1.1 1.6 1.1 2.5V86h.1zM31.3 33.9l-21.9 22 21.8 19.8-4.8 5.3L0 56.2 26.1 29l5.2 4.9zm637.4 0 21.8 21.9-21.8 19.8 4.8 5.4L700 56.2 673.9 29l-5.2 4.9z"></path></svg>